<svg id="Facebook" xmlns="http://www.w3.org/2000/svg" width="55.152" height="55.152" viewBox="0 0 55.152 55.152">
  <path id="Facebook-icon" data-name="Facebook" d="M25.311-510.772a27.923,27.923,0,0,0-10.012,2.9,25.173,25.173,0,0,0-6.973,5.149,24.322,24.322,0,0,0-5.281,7.355,24.638,24.638,0,0,0-1.951,5.2A27.709,27.709,0,0,0,4.748-468a28.461,28.461,0,0,0,8.159,8.069,27.808,27.808,0,0,0,9.84,3.926l.4.076v-21.536H16.57v-7.68h6.574v-2.9c0-1.59.054-3.429.108-4.078.442-4.662,2.888-7.648,7.113-8.675a14.455,14.455,0,0,1,3.449-.195c1.455,0,3.212.043,3.912.086l1.261.1v6.9H37.134c-3.8.011-4.958.335-5.572,1.568-.366.746-.442,1.46-.442,4.392v2.8h7.674l-.065.346c-.065.422-.927,7.074-.927,7.225a21.128,21.128,0,0,1-3.309.13l-3.319.033-.032,10.849-.022,10.838.453-.065a28.125,28.125,0,0,0,13.612-5.96,33.25,33.25,0,0,0,4.537-4.695,27.613,27.613,0,0,0,2.845-28.816,24.4,24.4,0,0,0-5.335-7.463,25.173,25.173,0,0,0-6.973-5.149A27.689,27.689,0,0,0,25.311-510.772Z" transform="translate(-0.212 510.878)" fill="#202020"/>
</svg>
