<svg id="Github" xmlns="http://www.w3.org/2000/svg" width="55.152" height="55.152" viewBox="0 0 55.152 55.152">
  <path id="Github-icon" d="M27.576,0C12.349,0,0,12.659,0,28.273A28.225,28.225,0,0,0,18.86,55.1c1.376.262,1.822-.615,1.822-1.359V48.479c-7.671,1.711-9.268-3.336-9.268-3.336-1.255-3.268-3.063-4.137-3.063-4.137-2.5-1.755.191-1.718.191-1.718A5.806,5.806,0,0,1,12.768,42.2c2.459,4.321,6.45,3.072,8.025,2.349a6.056,6.056,0,0,1,1.751-3.779C16.419,40.053,9.98,37.629,9.98,26.8a11.1,11.1,0,0,1,2.84-7.589,10.408,10.408,0,0,1,.269-7.483s2.316-.759,7.586,2.9a25.516,25.516,0,0,1,13.809,0c5.265-3.657,7.576-2.9,7.576-2.9a10.4,10.4,0,0,1,.271,7.483A11.068,11.068,0,0,1,45.169,26.8c0,10.859-6.45,13.251-12.591,13.95a6.849,6.849,0,0,1,1.891,5.235v7.759c0,.752.441,1.635,1.841,1.357A28.227,28.227,0,0,0,55.152,28.273C55.152,12.659,42.8,0,27.576,0Z" transform="translate(0 0)" fill="#202020"/>
</svg>
