<svg id="Instagram" xmlns="http://www.w3.org/2000/svg" width="55.152" height="55.152" viewBox="0 0 55.152 55.152">
  <path id="Instagram-icon" d="M34.077,14.482c-1.7-.078-2.206-.092-6.5-.092s-4.8.016-6.5.092c-4.364.2-6.4,2.266-6.6,6.6-.076,1.7-.094,2.2-.094,6.5s.018,4.8.094,6.5c.2,4.318,2.222,6.4,6.6,6.6,1.694.076,2.2.094,6.5.094s4.805-.016,6.5-.094c4.364-.2,6.393-2.27,6.6-6.6.076-1.7.092-2.206.092-6.5s-.016-4.8-.092-6.5c-.2-4.327-2.236-6.4-6.6-6.6Zm-6.5,21.355a8.26,8.26,0,1,1,8.261-8.261A8.261,8.261,0,0,1,27.576,35.837Zm8.588-14.916a1.93,1.93,0,1,1,1.93-1.93A1.93,1.93,0,0,1,36.163,20.921Zm-3.226,6.655a5.361,5.361,0,1,1-5.361-5.361A5.361,5.361,0,0,1,32.937,27.576ZM27.576,0A27.576,27.576,0,1,0,55.152,27.576,27.577,27.577,0,0,0,27.576,0ZM43.565,34.208c-.264,5.848-3.521,9.089-9.355,9.357-1.717.078-2.266.1-6.634.1s-4.915-.018-6.632-.1c-5.846-.269-9.089-3.514-9.357-9.357-.078-1.714-.1-2.264-.1-6.632s.018-4.915.1-6.632c.269-5.846,3.514-9.089,9.357-9.355,1.717-.08,2.264-.1,6.632-.1s4.918.018,6.634.1c5.848.269,9.093,3.521,9.355,9.355.078,1.717.1,2.264.1,6.632S43.643,32.494,43.565,34.208Z" transform="translate(0)" fill="#202020"/>
</svg>
